<svg width="128" height="26" viewBox="0 0 128 26" fill="none" xmlns="http://www.w3.org/2000/svg">
<path fill-rule="evenodd" clip-rule="evenodd" d="M11.3398 13.2006C11.3398 9.50678 14.4417 6.49805 18.2506 6.49805C22.076 6.49805 25.1833 9.50678 25.1833 13.2006C25.1833 16.8944 22.0705 19.9031 18.2506 19.9031C14.4417 19.9031 11.3398 16.8944 11.3398 13.2006ZM13.7841 13.2061C13.7841 15.6668 15.7899 17.6671 18.2506 17.6671C20.7223 17.6671 22.7336 15.6613 22.7336 13.2061C22.7336 10.7399 20.7223 8.73951 18.2506 8.73951C15.7844 8.73951 13.7841 10.7454 13.7841 13.2061ZM9.23447 10.1358C9.23447 11.2428 8.6974 12.2183 7.82053 12.7335C9.09199 13.2432 9.90309 14.4653 9.89761 15.9121C9.89761 18.0988 8.19321 19.6826 5.84212 19.6826H0V6.73242H5.69413C7.67804 6.73242 9.23447 8.22858 9.23447 10.1358ZM5.43109 13.8076H2.37849V17.748H5.5078C6.63677 17.748 7.552 16.8712 7.552 15.797C7.552 14.679 6.62033 13.8076 5.43109 13.8076ZM2.37301 11.9717H5.23927C6.1545 11.9717 6.89983 11.2099 6.89983 10.2728C6.89983 9.37399 6.1271 8.66699 5.14062 8.66699H2.37301V11.9717ZM33.6667 6.49805C29.8578 6.49805 26.7559 9.50678 26.7559 13.2006C26.7559 16.8944 29.8578 19.9031 33.6667 19.9031C37.4865 19.9031 40.5994 16.8944 40.5994 13.2006C40.5939 9.50678 37.4865 6.49805 33.6667 6.49805ZM33.6667 17.6671C31.206 17.6671 29.2001 15.6668 29.2001 13.2061C29.2001 10.7454 31.2005 8.73951 33.6667 8.73951C36.1383 8.73951 38.1496 10.7399 38.1496 13.2061C38.1496 15.6613 36.1383 17.6671 33.6667 17.6671ZM53.9006 6.73242L53.7527 6.88586L47.7516 13.0733L53.9719 19.6771H50.9083L45.3951 13.8131V19.6771H42.9453V6.73242H45.3951V12.3717L50.8481 6.73242H53.9006Z" fill="url(#paint0_linear_52_26564)"/>
<path fill-rule="evenodd" clip-rule="evenodd" d="M64.6363 12.0716L64.4938 12.0278C63.0744 11.6003 61.8522 11.2276 61.8522 10.0603C61.8522 8.97519 62.9648 8.49289 64.0663 8.49289C64.5541 8.49289 66.1763 8.62445 66.4558 10.3015L66.4667 10.3782H68.8726L68.8672 10.2795C68.6644 7.91197 66.8723 6.49805 64.0718 6.49805C61.2055 6.49805 59.4244 7.89554 59.4244 10.1535C59.4244 12.5484 61.4631 13.3924 63.7375 14.1103L63.7551 14.1158C65.2985 14.5957 66.6257 15.0084 66.6257 16.2532C66.6257 17.3766 65.4748 17.8754 64.3349 17.8754C63.1292 17.8754 61.7755 17.3602 61.6056 15.9189L61.5946 15.8366H59.1504L59.1559 15.9353C59.3587 18.8618 61.9618 19.9086 64.3349 19.9086C67.2449 19.9086 69.0535 18.4508 69.0535 16.1052C69.059 13.4811 67.011 12.8284 64.6392 12.0725L64.6363 12.0716ZM77.33 6.73242H71.3125V19.6826H73.6636V15.3202H77.2313C79.7578 15.3202 81.5883 13.5117 81.5883 11.0181C81.5937 8.57384 79.7633 6.73242 77.33 6.73242ZM73.6691 8.70535H76.8203C78.1794 8.70535 79.2426 9.71925 79.2426 11.0181C79.2426 12.3444 78.1685 13.3473 76.7436 13.3473H73.6691V8.70535ZM83.9043 6.73242H86.354V19.6826H83.9043V6.73242ZM95.2936 6.73242H89.4844V19.6826H95.2936H95.332C97.1515 19.6826 98.8559 18.9811 100.133 17.7097C101.36 16.4875 102.035 14.8927 102.035 13.2103C102.035 9.63704 99.0093 6.73242 95.2936 6.73242ZM91.9341 8.96844H95.2936C97.6611 8.96844 99.5848 10.8701 99.5848 13.2048C99.5848 15.5394 97.6611 17.4411 95.2936 17.4411H91.9341V8.96844ZM106.835 14.1335V17.5917H113.712V19.6742H104.385V12.1387H113.334V14.1335H106.835ZM113.521 6.73242H104.385V8.82046H113.521V6.73242ZM126.707 10.8811C126.707 12.6622 125.644 14.1584 123.994 14.7229L127.299 19.6826H124.619L124.592 19.6388L121.61 14.9749H118.722V19.6826H116.371V6.73242H122.558C124.926 6.73242 126.707 8.51356 126.707 10.8811ZM122.043 8.70535H118.722V13.0787H121.967C123.309 13.0787 124.356 12.1142 124.356 10.8811C124.356 9.65896 123.337 8.70535 122.043 8.70535Z" fill="white"/>
<defs>
<linearGradient id="paint0_linear_52_26564" x1="0" y1="13.2006" x2="53.9719" y2="13.2006" gradientUnits="userSpaceOnUse">
<stop stop-color="#00FF85"/>
<stop offset="1" stop-color="#3394FF"/>
</linearGradient>
</defs>
</svg>
