<svg width="40" height="40" viewBox="0 0 40 40" fill="none" xmlns="http://www.w3.org/2000/svg">
<path d="M0 20C0 8.95431 8.95431 0 20 0C31.0457 0 40 8.95431 40 20C40 31.0457 31.0457 40 20 40C8.95431 40 0 31.0457 0 20Z" fill="#F3F0FF"/>
<g clip-path="url(#clip0_1401_217751)">
<g clip-path="url(#clip1_1401_217751)">
<path d="M12.2403 26.8794H13.7221L23.4823 17.1192L22.0005 15.6375L12.2403 25.3977V26.8794ZM29.0068 28.9752H10.1445V24.529L24.2231 10.4504C24.4196 10.2539 24.6861 10.1436 24.964 10.1436C25.2419 10.1436 25.5083 10.2539 25.7049 10.4504L28.6694 13.4149C28.8658 13.6114 28.9762 13.8779 28.9762 14.1558C28.9762 14.4336 28.8658 14.7001 28.6694 14.8966L16.6866 26.8794H29.0068V28.9752ZM23.4823 14.1558L24.964 15.6375L26.4457 14.1558L24.964 12.674L23.4823 14.1558Z" fill="#6843FC"/>
</g>
</g>
<defs>
<clipPath id="clip0_1401_217751">
<rect width="24" height="24" fill="white" transform="translate(7 7)"/>
</clipPath>
<clipPath id="clip1_1401_217751">
<rect width="25.1497" height="25.1497" fill="white" transform="translate(7 7)"/>
</clipPath>
</defs>
</svg>
